<?xml version="1.0" encoding="UTF-8" standalone="no"?>
<svg viewBox="0 0 768 768" xmlns="http://www.w3.org/2000/svg" xmlns:xlink="http://www.w3.org/1999/xlink"><defs><clipPath id="clipPathFlag"><path d="m57.5.5h397a57,57 0 0,1 57,57v397a57,57 0 0,1 -57,57h-397a57,57 0 0,1 -57-57v-397a57,57 0 0,1 57-57"/></clipPath><clipPath id="clipPath5796"><path d="m57,0h398a57,57 0 0,1 57,57v398a57,57 0 0,1 -57,57h-398a57,57 0 0,1 -57-57v-398a57,57 0 0,1 57-57"/></clipPath><filter id="filter5740"><feGaussianBlur stdDeviation="5.12"/></filter><filter id="filter5912"><feGaussianBlur stdDeviation="17.92"/></filter><linearGradient id="linearGradient3852-0"><stop offset="0" stop-color="#dbe3db"/><stop offset="1" stop-color="#dbe3db" stop-opacity="0"/></linearGradient><linearGradient gradientTransform="matrix(1.15711,0,0,1.31668,-91.20426,-253.98784)" gradientUnits="userSpaceOnUse" id="linearGradient5122" x1="342.1882" x2="358.07608" xlink:href="#linearGradient3852-0" y1="705.75824" y2="523.40735"/><linearGradient gradientTransform="matrix(.95303,0,0,.86647,11.57512,-4.5016)" gradientUnits="userSpaceOnUse" id="linearGradient5125" x1="405.2634" x2="405.74554" xlink:href="#linearGradient3852-0" y1="118.06474" y2="360.92188"/></defs>
  >
  <g transform="translate(90,90)"><path d="m95,56h398a57,57 0 0,1 57,57v398a57,57 0 0,1 -57,57h-398a57,57 0 0,1 -57-57v-398a57,57 0 0,1 57-57" filter="url(#filter5912)" id="shadow" stroke="#a8a8a8" stroke-width="5"/></g><g clip-path="url(#clipPathFlag)" transform="translate(128,128)"><path d="m57,0h398a57,57 0 0,1 57,57v398a57,57 0 0,1 -57,57h-398a57,57 0 0,1 -57-57v-398a57,57 0 0,1 57-57" fill="#00f" id="mask"/><g id="flag" transform="matrix(.48166,0,0,.72249,0,2.4115845e-6)"><path d="m0,0h1062.99v708.66101h-1062.99z" fill="#ffff0b" fill-rule="evenodd"/><path d="m0,0h1062.99v354.33099h-1062.99z" fill="#268cff" fill-rule="evenodd"/></g></g><g transform="translate(0,38)"><path d="m214.21087,111.21099c-45.24514.18809-68.71568,7.73077-64.09352,83.5526l2.8252,46.34456c47.4743,5.51239 56.66416,18.44506 104.35936,21.91413 68.07337,4.95126 67.93728,5.42092 130.56477-14.38414s5.82485-65.24698 207.32205-57.8201c4.60334.16968 17.3137-3.05269 27.46187-12.15043 5.5817-46.52389-2.78415-69.14289-66.93352-68.87623z" fill="url(#linearGradient5125)"/><path d="m531.03278,495.17335c-31.60486,19.02245-27.60116,31.26037-37.91323,32.57276-94.70417,12.0527-145.97722-.72701-165.79583-12.06122-59.58792-34.07817-68.46788-13.01421-100.22126-16.5742-20.11475-2.25514-59.24503,12.98404-73.38763,44.34434 3.47222,27.60795 18.11064,32.09835 44.28127,31.98612l356.05526-1.52684c69.69188-.29885 56.33547-8.49265 65.54301-56.03861-14.77205-21.67074-13.15664,9.10903-44.2237-30.71666z" fill="url(#linearGradient5122)"/><path clip-path="url(#clipPath5796)" d="m57,0h398a57,57 0 0,1 57,57v398a57,57 0 0,1 -57,57h-398a57,57 0 0,1 -57-57v-398a57,57 0 0,1 57-57" fill="none" filter="url(#filter5740)" stroke="#000" stroke-width="20" transform="translate(128,90)"/></g></svg>
