<?xml version="1.0" encoding="UTF-8" standalone="no"?>
<svg viewBox="0 0 200.13248 200.02025" xmlns="http://www.w3.org/2000/svg">
<title>Target</title>
<g transform="translate(-249.40313,-443.39036)">
<path d="m531.76691,557.68408c0,99.75773-80.86962,180.62735-180.62735,180.62735s-180.62735-80.86962-180.62735-180.62735 80.86962-180.62735 180.62735-180.62735 180.62735,80.86962 180.62735,180.62735z" fill="none" stroke="#000" stroke-width="24.08365" transform="matrix(.41522,0,0,.41522,203.66893,311.84424)"/>
<path d="m531.76691,557.68408c0,99.75773-80.86962,180.62735-180.62735,180.62735s-180.62735-80.86962-180.62735-180.62735 80.86962-180.62735 180.62735-180.62735 180.62735,80.86962 180.62735,180.62735z" fill="none" stroke="#000" stroke-width="40.13941" transform="matrix(.24913,0,0,.24913,261.9891,404.46284)"/>
<path d="m531.76691,557.68408c0,99.75773-80.86962,180.62735-180.62735,180.62735s-180.62735-80.86962-180.62735-180.62735 80.86962-180.62735 180.62735-180.62735 180.62735,80.86962 180.62735,180.62735z" transform="matrix(.12121,0,0,.12121,306.90687,475.80221)"/>
<path d="m349.47978,455.92724v174.94848" fill="none" stroke="#000" stroke-linecap="round" stroke-width="5"/>
<path d="m436.98466,543.40556h-174.94848" fill="none" stroke="#000" stroke-linecap="round" stroke-width="5"/>
</g>
</svg>
