<?xml version="1.0" encoding="UTF-8" standalone="no"?>
<svg viewBox="0 0 55 40.000038" xmlns="http://www.w3.org/2000/svg" xmlns:xlink="http://www.w3.org/1999/xlink">
<defs>
<linearGradient>
<stop offset="0" stop-color="#f5d13c"/>
<stop offset="1" stop-color="#3e3700"/>
</linearGradient>
<linearGradient>
<stop offset="0" stop-color="#ffcd00"/>
<stop offset="1" stop-color="#7b6818"/>
</linearGradient>
<linearGradient gradientUnits="userSpaceOnUse" x1="85.24571" x2="102.13175" y1="1419.35791" y2="1405.99927">
<stop offset="0" stop-color="#f8c700"/>
<stop offset="1" stop-color="#7b6818"/>
</linearGradient>
<linearGradient>
<stop offset="0" stop-color="#f3c300"/>
<stop offset="1" stop-color="#7c6611"/>
</linearGradient>
<linearGradient gradientUnits="userSpaceOnUse" x1="333.29203" x2="346.69834" xlink:href="#linearGradient15217" y1="975.88634" y2="966.5113"/>
<radialGradient cx="1176.5393" cy="-83.70066" gradientTransform="matrix(2.365521,-2.8239328e-6,3.2240903e-6,2.70072,-2444.518,1229.6455)" gradientUnits="userSpaceOnUse" r="8.02389" xlink:href="#linearGradient15217"/>
</defs>
<g transform="translate(-1263.18879,-1267.01503)">
<path d="m1220.125,22.29748c0,1.79493-1.4551,3.25-3.25,3.25s-3.25-1.45507-3.25-3.25 1.4551-3.25 3.25-3.25 3.25,1.45507 3.25,3.25z" fill="#ff5e00" transform="matrix(2.302555,0,0,2.302555,-1507.1654,1223.157)"/>
<path d="m1289.5944,1283.3606c.112.665.1874,1.3351.1874,2.0298 0,2.613-.8169,5.0433-2.2172,7.0262h9.4931c-.1847-.7437-.2809-1.509-.2809-2.3108 0-2.2383.7499-4.3104 2.0297-5.9333-1.198.5931-2.5488.9369-3.9659.9369-1.9741,0-3.7739-.6615-5.2462-1.7488z" fill="#999"/>
<path d="m1220.125,22.29748c0,1.79493-1.4551,3.25-3.25,3.25s-3.25-1.45507-3.25-3.25 1.4551-3.25 3.25-3.25 3.25,1.45507 3.25,3.25z" fill="#ff5e00" transform="matrix(2.173596,0,0,2.173596,-1338.8528,1241.6316)"/>
<path d="m1299.5046,1296.8016c-1.9716.4014-3.4208,2.1387-3.4207,4.2324v5.9716h20.292v-5.9716c0-2.0937-1.4488-3.831-3.4207-4.2324-1.5634,1.9861-4.0034,3.3047-6.7253,3.3047s-5.104-1.3186-6.6672-3.3047c-.019-.013-.048.013-.058,0h-.0005z" fill="#999"/>
<path d="m1220.125,22.29748c0,1.79493-1.4551,3.25-3.25,3.25s-3.25-1.45507-3.25-3.25 1.4551-3.25 3.25-3.25 3.25,1.45507 3.25,3.25z" fill="#ff5e00" transform="matrix(2.781679,0,0,2.781679,-2107.083,1223.3519)"/>
<path d="m1269.3793,1293.9561c-2.5231.5138-4.3779,2.7371-4.3776,5.4165v7.6423h25.9687v-7.6423c0-2.6794-1.8541-4.9027-4.3775-5.4165-2.0008,2.5417-5.1235,4.2293-8.6068,4.2293s-6.5319-1.6876-8.5326-4.2293c-.024-.017-.062.017-.073,0h-.0007z" fill="#999"/>
</g>
</svg>
