<svg xmlns="http://www.w3.org/2000/svg" width="110.5" height="101.9" viewBox="0 0 110.5 101.9"><path opacity=".7" fill="#FFF" d="M.3 73.3l49.1-28.2 49.9 28.7-49.6 28.1-49.7-28.6"/><path opacity=".8" fill="#E7E7E7" d="M4.3 53.9l49.1-28.2 49.9 28.8-49.6 29.1-49.7-29.6"/><path fill="#FFF" d="M11.4 36.2l49.1-28.2 50 28.7-49.6 29.1-49.7-29.6"/><path d="M34.8 13.8l41.8 24.9-11.1 7.4-42.7-25.1m56.4-9.3h-.2l19.9 11.9-3.7 2.2-20.1-11.6m-2.4 1.7h-.1l19.8 11.9-3.6 2.2-20.1-11.6m-3 2.3h-.2l19.9 11.9-3.7 2.2-20-11.6m-6.2-23.2h-.1l17 10.2-16.9 9.9-16.9-9.9" fill="#E94E1B"/></svg>